<mxfile host="app.diagrams.net" modified="2023-07-19T20:31:56.362Z" agent="Mozilla/5.0 (Macintosh; Intel Mac OS X 10_15_7) AppleWebKit/605.1.15 (KHTML, like Gecko) Version/16.2 Safari/605.1.15" etag="ofRfWP4ZJwf2Ks2ic5kz" version="21.6.2" type="device">
  <diagram id="6a731a19-8d31-9384-78a2-239565b7b9f0" name="Page-1">
    <mxGraphModel dx="1434" dy="780" grid="1" gridSize="10" guides="1" tooltips="1" connect="1" arrows="1" fold="1" page="0" pageScale="1" pageWidth="1169" pageHeight="827" background="none" math="0" shadow="0">
      <root>
        <mxCell id="0" />
        <mxCell id="1" parent="0" />
        <mxCell id="GxmYWCP9D9KNuWDRxBoi-2157" style="orthogonalLoop=1;jettySize=auto;html=1;entryX=0.5;entryY=0;entryDx=0;entryDy=0;rounded=0;elbow=vertical;edgeStyle=orthogonalEdgeStyle;endArrow=none;endFill=0;strokeWidth=2;" parent="1" source="1753" target="GxmYWCP9D9KNuWDRxBoi-2115" edge="1">
          <mxGeometry relative="1" as="geometry">
            <Array as="points">
              <mxPoint x="175" y="360" />
              <mxPoint x="85" y="360" />
            </Array>
          </mxGeometry>
        </mxCell>
        <mxCell id="GxmYWCP9D9KNuWDRxBoi-2160" style="edgeStyle=orthogonalEdgeStyle;rounded=0;orthogonalLoop=1;jettySize=auto;html=1;entryX=0.5;entryY=0;entryDx=0;entryDy=0;endArrow=none;endFill=0;elbow=vertical;strokeWidth=2;" parent="1" source="1753" target="GxmYWCP9D9KNuWDRxBoi-2118" edge="1">
          <mxGeometry relative="1" as="geometry">
            <Array as="points">
              <mxPoint x="175" y="360" />
              <mxPoint x="145" y="360" />
            </Array>
          </mxGeometry>
        </mxCell>
        <mxCell id="GxmYWCP9D9KNuWDRxBoi-2161" style="edgeStyle=orthogonalEdgeStyle;rounded=0;orthogonalLoop=1;jettySize=auto;html=1;entryX=0.5;entryY=0;entryDx=0;entryDy=0;endArrow=none;endFill=0;elbow=vertical;strokeWidth=2;" parent="1" source="1753" target="GxmYWCP9D9KNuWDRxBoi-2119" edge="1">
          <mxGeometry relative="1" as="geometry">
            <Array as="points">
              <mxPoint x="175" y="360" />
              <mxPoint x="165" y="360" />
            </Array>
          </mxGeometry>
        </mxCell>
        <mxCell id="GxmYWCP9D9KNuWDRxBoi-2162" style="edgeStyle=orthogonalEdgeStyle;rounded=0;orthogonalLoop=1;jettySize=auto;html=1;entryX=0.5;entryY=0;entryDx=0;entryDy=0;endArrow=none;endFill=0;elbow=vertical;strokeWidth=2;" parent="1" source="1753" target="GxmYWCP9D9KNuWDRxBoi-2120" edge="1">
          <mxGeometry relative="1" as="geometry">
            <Array as="points">
              <mxPoint x="175" y="360" />
              <mxPoint x="185" y="360" />
            </Array>
          </mxGeometry>
        </mxCell>
        <mxCell id="GxmYWCP9D9KNuWDRxBoi-2163" style="edgeStyle=orthogonalEdgeStyle;rounded=0;orthogonalLoop=1;jettySize=auto;html=1;entryX=0.5;entryY=0;entryDx=0;entryDy=0;endArrow=none;endFill=0;elbow=vertical;strokeWidth=2;" parent="1" source="1753" target="GxmYWCP9D9KNuWDRxBoi-2121" edge="1">
          <mxGeometry relative="1" as="geometry">
            <Array as="points">
              <mxPoint x="175" y="360" />
              <mxPoint x="205" y="360" />
            </Array>
          </mxGeometry>
        </mxCell>
        <mxCell id="1753" value="&lt;font style=&quot;font-size: 18px;&quot;&gt;Dataset&lt;/font&gt;" style="rounded=1;whiteSpace=wrap;html=1;shadow=0;labelBackgroundColor=none;strokeWidth=3;fontFamily=Helvetica;fontSize=14;align=center;spacing=5;fontStyle=1;arcSize=7;perimeterSpacing=2;" parent="1" vertex="1">
          <mxGeometry x="130" y="160" width="90" height="40" as="geometry" />
        </mxCell>
        <mxCell id="GxmYWCP9D9KNuWDRxBoi-1779" value="&lt;font style=&quot;font-size: 18px;&quot;&gt;Atlas&lt;/font&gt;" style="rounded=1;whiteSpace=wrap;html=1;shadow=0;labelBackgroundColor=none;strokeWidth=3;fontFamily=Helvetica;fontSize=14;align=center;spacing=5;fontStyle=1;arcSize=7;perimeterSpacing=2;" parent="1" vertex="1">
          <mxGeometry x="473" y="160" width="92" height="40" as="geometry" />
        </mxCell>
        <mxCell id="GxmYWCP9D9KNuWDRxBoi-2203" style="edgeStyle=orthogonalEdgeStyle;rounded=0;orthogonalLoop=1;jettySize=auto;html=1;entryX=0.5;entryY=1;entryDx=0;entryDy=0;endArrow=none;endFill=0;elbow=vertical;strokeWidth=2;" parent="1" source="GxmYWCP9D9KNuWDRxBoi-1786" target="GxmYWCP9D9KNuWDRxBoi-1779" edge="1">
          <mxGeometry relative="1" as="geometry">
            <Array as="points">
              <mxPoint x="404" y="240" />
              <mxPoint x="519" y="240" />
            </Array>
          </mxGeometry>
        </mxCell>
        <mxCell id="GxmYWCP9D9KNuWDRxBoi-1786" value="" style="rounded=1;whiteSpace=wrap;html=1;shadow=0;labelBackgroundColor=none;strokeWidth=3;fontFamily=Helvetica;fontSize=14;align=center;spacing=5;fontStyle=1;arcSize=7;perimeterSpacing=2;" parent="1" vertex="1">
          <mxGeometry x="384" y="280" width="40" height="40" as="geometry" />
        </mxCell>
        <mxCell id="GxmYWCP9D9KNuWDRxBoi-2204" style="edgeStyle=orthogonalEdgeStyle;rounded=0;orthogonalLoop=1;jettySize=auto;html=1;endArrow=none;endFill=0;elbow=vertical;strokeWidth=2;" parent="1" source="GxmYWCP9D9KNuWDRxBoi-1787" target="GxmYWCP9D9KNuWDRxBoi-1779" edge="1">
          <mxGeometry relative="1" as="geometry" />
        </mxCell>
        <mxCell id="GxmYWCP9D9KNuWDRxBoi-1787" value="" style="rounded=1;whiteSpace=wrap;html=1;shadow=0;labelBackgroundColor=none;strokeWidth=3;fontFamily=Helvetica;fontSize=14;align=center;spacing=5;fontStyle=1;arcSize=7;perimeterSpacing=2;" parent="1" vertex="1">
          <mxGeometry x="499" y="280" width="40" height="40" as="geometry" />
        </mxCell>
        <mxCell id="GxmYWCP9D9KNuWDRxBoi-2205" style="edgeStyle=orthogonalEdgeStyle;rounded=0;orthogonalLoop=1;jettySize=auto;html=1;endArrow=none;endFill=0;elbow=vertical;strokeWidth=2;" parent="1" source="GxmYWCP9D9KNuWDRxBoi-1788" target="GxmYWCP9D9KNuWDRxBoi-1779" edge="1">
          <mxGeometry relative="1" as="geometry">
            <Array as="points">
              <mxPoint x="634" y="240" />
              <mxPoint x="519" y="240" />
            </Array>
          </mxGeometry>
        </mxCell>
        <mxCell id="GxmYWCP9D9KNuWDRxBoi-1788" value="" style="rounded=1;whiteSpace=wrap;html=1;shadow=0;labelBackgroundColor=none;strokeWidth=3;fontFamily=Helvetica;fontSize=14;align=center;spacing=5;fontStyle=1;arcSize=7;perimeterSpacing=2;" parent="1" vertex="1">
          <mxGeometry x="614" y="280" width="40" height="40" as="geometry" />
        </mxCell>
        <mxCell id="GxmYWCP9D9KNuWDRxBoi-2166" style="edgeStyle=orthogonalEdgeStyle;rounded=0;orthogonalLoop=1;jettySize=auto;html=1;endArrow=none;endFill=0;elbow=vertical;strokeWidth=2;" parent="1" source="GxmYWCP9D9KNuWDRxBoi-2098" target="1753" edge="1">
          <mxGeometry relative="1" as="geometry">
            <Array as="points">
              <mxPoint x="265" y="360" />
              <mxPoint x="175" y="360" />
            </Array>
          </mxGeometry>
        </mxCell>
        <mxCell id="GxmYWCP9D9KNuWDRxBoi-2098" value="" style="rounded=1;whiteSpace=wrap;html=1;shadow=0;labelBackgroundColor=none;strokeWidth=3;fontFamily=Helvetica;fontSize=14;align=center;spacing=5;fontStyle=1;arcSize=7;perimeterSpacing=2;fillColor=#ff7f00;strokeColor=#000000;" parent="1" vertex="1">
          <mxGeometry x="260" y="400" width="10" height="40" as="geometry" />
        </mxCell>
        <mxCell id="GxmYWCP9D9KNuWDRxBoi-2115" value="" style="rounded=1;whiteSpace=wrap;html=1;shadow=0;labelBackgroundColor=none;strokeWidth=3;fontFamily=Helvetica;fontSize=14;align=center;spacing=5;fontStyle=1;arcSize=7;perimeterSpacing=2;fillColor=#1f78b4;strokeColor=#000000;" parent="1" vertex="1">
          <mxGeometry x="80" y="400" width="10" height="40" as="geometry" />
        </mxCell>
        <mxCell id="GxmYWCP9D9KNuWDRxBoi-2158" style="edgeStyle=orthogonalEdgeStyle;rounded=0;orthogonalLoop=1;jettySize=auto;html=1;exitX=0.5;exitY=0;exitDx=0;exitDy=0;entryX=0.5;entryY=1;entryDx=0;entryDy=0;endArrow=none;endFill=0;elbow=vertical;strokeWidth=2;" parent="1" source="GxmYWCP9D9KNuWDRxBoi-2116" target="1753" edge="1">
          <mxGeometry relative="1" as="geometry">
            <Array as="points">
              <mxPoint x="105" y="360" />
              <mxPoint x="175" y="360" />
            </Array>
          </mxGeometry>
        </mxCell>
        <mxCell id="GxmYWCP9D9KNuWDRxBoi-2116" value="" style="rounded=1;whiteSpace=wrap;html=1;shadow=0;labelBackgroundColor=none;strokeWidth=3;fontFamily=Helvetica;fontSize=14;align=center;spacing=5;fontStyle=1;arcSize=7;perimeterSpacing=2;fillColor=#1f78b4;strokeColor=#000000;" parent="1" vertex="1">
          <mxGeometry x="100" y="400" width="10" height="40" as="geometry" />
        </mxCell>
        <mxCell id="GxmYWCP9D9KNuWDRxBoi-2159" style="edgeStyle=orthogonalEdgeStyle;rounded=0;orthogonalLoop=1;jettySize=auto;html=1;entryX=0.5;entryY=1;entryDx=0;entryDy=0;endArrow=none;endFill=0;elbow=vertical;strokeWidth=2;" parent="1" source="GxmYWCP9D9KNuWDRxBoi-2117" target="1753" edge="1">
          <mxGeometry relative="1" as="geometry">
            <Array as="points">
              <mxPoint x="125" y="360" />
              <mxPoint x="175" y="360" />
            </Array>
          </mxGeometry>
        </mxCell>
        <mxCell id="GxmYWCP9D9KNuWDRxBoi-2117" value="" style="rounded=1;whiteSpace=wrap;html=1;shadow=0;labelBackgroundColor=none;strokeWidth=3;fontFamily=Helvetica;fontSize=14;align=center;spacing=5;fontStyle=1;arcSize=7;perimeterSpacing=2;fillColor=#1f78b4;strokeColor=#000000;" parent="1" vertex="1">
          <mxGeometry x="120" y="400" width="10" height="40" as="geometry" />
        </mxCell>
        <mxCell id="GxmYWCP9D9KNuWDRxBoi-2118" value="" style="rounded=1;whiteSpace=wrap;html=1;shadow=0;labelBackgroundColor=none;strokeWidth=3;fontFamily=Helvetica;fontSize=14;align=center;spacing=5;fontStyle=1;arcSize=7;perimeterSpacing=2;fillColor=#1f78b4;strokeColor=#000000;" parent="1" vertex="1">
          <mxGeometry x="140" y="400" width="10" height="40" as="geometry" />
        </mxCell>
        <mxCell id="GxmYWCP9D9KNuWDRxBoi-2119" value="" style="rounded=1;whiteSpace=wrap;html=1;shadow=0;labelBackgroundColor=none;strokeWidth=3;fontFamily=Helvetica;fontSize=14;align=center;spacing=5;fontStyle=1;arcSize=7;perimeterSpacing=2;fillColor=#1f78b4;strokeColor=#000000;" parent="1" vertex="1">
          <mxGeometry x="160" y="400" width="10" height="40" as="geometry" />
        </mxCell>
        <mxCell id="GxmYWCP9D9KNuWDRxBoi-2120" value="" style="rounded=1;whiteSpace=wrap;html=1;shadow=0;labelBackgroundColor=none;strokeWidth=3;fontFamily=Helvetica;fontSize=14;align=center;spacing=5;fontStyle=1;arcSize=7;perimeterSpacing=2;fillColor=#ff7f00;strokeColor=#000000;" parent="1" vertex="1">
          <mxGeometry x="180" y="400" width="10" height="40" as="geometry" />
        </mxCell>
        <mxCell id="GxmYWCP9D9KNuWDRxBoi-2121" value="" style="rounded=1;whiteSpace=wrap;html=1;shadow=0;labelBackgroundColor=none;strokeWidth=3;fontFamily=Helvetica;fontSize=14;align=center;spacing=5;fontStyle=1;arcSize=7;perimeterSpacing=2;fillColor=#ff7f00;strokeColor=#000000;" parent="1" vertex="1">
          <mxGeometry x="200" y="400" width="10" height="40" as="geometry" />
        </mxCell>
        <mxCell id="GxmYWCP9D9KNuWDRxBoi-2164" style="edgeStyle=orthogonalEdgeStyle;rounded=0;orthogonalLoop=1;jettySize=auto;html=1;entryX=0.5;entryY=1;entryDx=0;entryDy=0;endArrow=none;endFill=0;elbow=vertical;strokeWidth=2;" parent="1" source="GxmYWCP9D9KNuWDRxBoi-2122" target="1753" edge="1">
          <mxGeometry relative="1" as="geometry">
            <Array as="points">
              <mxPoint x="225" y="360" />
              <mxPoint x="175" y="360" />
            </Array>
          </mxGeometry>
        </mxCell>
        <mxCell id="GxmYWCP9D9KNuWDRxBoi-2122" value="" style="rounded=1;whiteSpace=wrap;html=1;shadow=0;labelBackgroundColor=none;strokeWidth=3;fontFamily=Helvetica;fontSize=14;align=center;spacing=5;fontStyle=1;arcSize=7;perimeterSpacing=2;fillColor=#ff7f00;strokeColor=#000000;" parent="1" vertex="1">
          <mxGeometry x="220" y="400" width="10" height="40" as="geometry" />
        </mxCell>
        <mxCell id="GxmYWCP9D9KNuWDRxBoi-2165" style="edgeStyle=orthogonalEdgeStyle;rounded=0;orthogonalLoop=1;jettySize=auto;html=1;endArrow=none;endFill=0;elbow=vertical;strokeWidth=2;" parent="1" source="GxmYWCP9D9KNuWDRxBoi-2123" target="1753" edge="1">
          <mxGeometry relative="1" as="geometry">
            <Array as="points">
              <mxPoint x="245" y="360" />
              <mxPoint x="175" y="360" />
            </Array>
          </mxGeometry>
        </mxCell>
        <mxCell id="GxmYWCP9D9KNuWDRxBoi-2123" value="" style="rounded=1;whiteSpace=wrap;html=1;shadow=0;labelBackgroundColor=none;strokeWidth=3;fontFamily=Helvetica;fontSize=14;align=center;spacing=5;fontStyle=1;arcSize=7;perimeterSpacing=2;fillColor=#ff7f00;strokeColor=#000000;" parent="1" vertex="1">
          <mxGeometry x="240" y="400" width="10" height="40" as="geometry" />
        </mxCell>
        <mxCell id="GxmYWCP9D9KNuWDRxBoi-2171" style="edgeStyle=orthogonalEdgeStyle;rounded=0;orthogonalLoop=1;jettySize=auto;html=1;endArrow=none;endFill=0;elbow=vertical;strokeWidth=2;" parent="1" source="GxmYWCP9D9KNuWDRxBoi-2142" target="GxmYWCP9D9KNuWDRxBoi-1786" edge="1">
          <mxGeometry relative="1" as="geometry">
            <Array as="points">
              <mxPoint x="364" y="360" />
              <mxPoint x="404" y="360" />
            </Array>
          </mxGeometry>
        </mxCell>
        <mxCell id="GxmYWCP9D9KNuWDRxBoi-2142" value="" style="rounded=1;whiteSpace=wrap;html=1;shadow=0;labelBackgroundColor=none;strokeWidth=3;fontFamily=Helvetica;fontSize=14;align=center;spacing=5;fontStyle=1;arcSize=7;perimeterSpacing=2;fillColor=#1f78b4;strokeColor=#000000;" parent="1" vertex="1">
          <mxGeometry x="359" y="400" width="10" height="40" as="geometry" />
        </mxCell>
        <mxCell id="GxmYWCP9D9KNuWDRxBoi-2167" style="edgeStyle=orthogonalEdgeStyle;rounded=0;orthogonalLoop=1;jettySize=auto;html=1;entryX=0.5;entryY=0.955;entryDx=0;entryDy=0;entryPerimeter=0;endArrow=none;endFill=0;elbow=vertical;strokeWidth=2;" parent="1" source="GxmYWCP9D9KNuWDRxBoi-2143" target="GxmYWCP9D9KNuWDRxBoi-1786" edge="1">
          <mxGeometry relative="1" as="geometry" />
        </mxCell>
        <mxCell id="GxmYWCP9D9KNuWDRxBoi-2143" value="" style="rounded=1;whiteSpace=wrap;html=1;shadow=0;labelBackgroundColor=none;strokeWidth=3;fontFamily=Helvetica;fontSize=14;align=center;spacing=5;fontStyle=1;arcSize=7;perimeterSpacing=2;fillColor=#1f78b4;strokeColor=#000000;" parent="1" vertex="1">
          <mxGeometry x="379" y="400" width="10" height="40" as="geometry" />
        </mxCell>
        <mxCell id="GxmYWCP9D9KNuWDRxBoi-2168" style="edgeStyle=orthogonalEdgeStyle;rounded=0;orthogonalLoop=1;jettySize=auto;html=1;endArrow=none;endFill=0;elbow=vertical;strokeWidth=2;" parent="1" source="GxmYWCP9D9KNuWDRxBoi-2144" edge="1">
          <mxGeometry relative="1" as="geometry">
            <mxPoint x="404" y="319.99999999999994" as="targetPoint" />
          </mxGeometry>
        </mxCell>
        <mxCell id="GxmYWCP9D9KNuWDRxBoi-2144" value="" style="rounded=1;whiteSpace=wrap;html=1;shadow=0;labelBackgroundColor=none;strokeWidth=3;fontFamily=Helvetica;fontSize=14;align=center;spacing=5;fontStyle=1;arcSize=7;perimeterSpacing=2;fillColor=#1f78b4;strokeColor=#000000;" parent="1" vertex="1">
          <mxGeometry x="399" y="400" width="10" height="40" as="geometry" />
        </mxCell>
        <mxCell id="GxmYWCP9D9KNuWDRxBoi-2169" style="edgeStyle=orthogonalEdgeStyle;rounded=0;orthogonalLoop=1;jettySize=auto;html=1;endArrow=none;endFill=0;elbow=vertical;strokeWidth=2;" parent="1" source="GxmYWCP9D9KNuWDRxBoi-2145" edge="1">
          <mxGeometry relative="1" as="geometry">
            <mxPoint x="404" y="319.99999999999994" as="targetPoint" />
            <Array as="points">
              <mxPoint x="424" y="360" />
              <mxPoint x="404" y="360" />
            </Array>
          </mxGeometry>
        </mxCell>
        <mxCell id="GxmYWCP9D9KNuWDRxBoi-2145" value="" style="rounded=1;whiteSpace=wrap;html=1;shadow=0;labelBackgroundColor=none;strokeWidth=3;fontFamily=Helvetica;fontSize=14;align=center;spacing=5;fontStyle=1;arcSize=7;perimeterSpacing=2;fillColor=#ff7f00;strokeColor=#000000;" parent="1" vertex="1">
          <mxGeometry x="419" y="400" width="10" height="40" as="geometry" />
        </mxCell>
        <mxCell id="GxmYWCP9D9KNuWDRxBoi-2170" style="edgeStyle=orthogonalEdgeStyle;rounded=0;orthogonalLoop=1;jettySize=auto;html=1;endArrow=none;endFill=0;elbow=vertical;strokeWidth=2;" parent="1" source="GxmYWCP9D9KNuWDRxBoi-2146" edge="1">
          <mxGeometry relative="1" as="geometry">
            <mxPoint x="404" y="319.99999999999994" as="targetPoint" />
            <Array as="points">
              <mxPoint x="444" y="360" />
              <mxPoint x="404" y="360" />
            </Array>
          </mxGeometry>
        </mxCell>
        <mxCell id="GxmYWCP9D9KNuWDRxBoi-2146" value="" style="rounded=1;whiteSpace=wrap;html=1;shadow=0;labelBackgroundColor=none;strokeWidth=3;fontFamily=Helvetica;fontSize=14;align=center;spacing=5;fontStyle=1;arcSize=7;perimeterSpacing=2;fillColor=#ff7f00;strokeColor=#000000;" parent="1" vertex="1">
          <mxGeometry x="439" y="400" width="10" height="40" as="geometry" />
        </mxCell>
        <mxCell id="GxmYWCP9D9KNuWDRxBoi-2176" style="edgeStyle=orthogonalEdgeStyle;rounded=0;orthogonalLoop=1;jettySize=auto;html=1;entryX=0.5;entryY=1;entryDx=0;entryDy=0;endArrow=none;endFill=0;elbow=vertical;strokeWidth=2;" parent="1" source="GxmYWCP9D9KNuWDRxBoi-2147" target="GxmYWCP9D9KNuWDRxBoi-1787" edge="1">
          <mxGeometry relative="1" as="geometry">
            <Array as="points">
              <mxPoint x="479" y="360" />
              <mxPoint x="519" y="360" />
            </Array>
          </mxGeometry>
        </mxCell>
        <mxCell id="GxmYWCP9D9KNuWDRxBoi-2147" value="" style="rounded=1;whiteSpace=wrap;html=1;shadow=0;labelBackgroundColor=none;strokeWidth=3;fontFamily=Helvetica;fontSize=14;align=center;spacing=5;fontStyle=1;arcSize=7;perimeterSpacing=2;fillColor=#1f78b4;strokeColor=#000000;" parent="1" vertex="1">
          <mxGeometry x="474" y="400" width="10" height="40" as="geometry" />
        </mxCell>
        <mxCell id="GxmYWCP9D9KNuWDRxBoi-2172" style="edgeStyle=orthogonalEdgeStyle;rounded=0;orthogonalLoop=1;jettySize=auto;html=1;entryX=0.5;entryY=1;entryDx=0;entryDy=0;endArrow=none;endFill=0;elbow=vertical;strokeWidth=2;" parent="1" source="GxmYWCP9D9KNuWDRxBoi-2148" target="GxmYWCP9D9KNuWDRxBoi-1787" edge="1">
          <mxGeometry relative="1" as="geometry" />
        </mxCell>
        <mxCell id="GxmYWCP9D9KNuWDRxBoi-2148" value="" style="rounded=1;whiteSpace=wrap;html=1;shadow=0;labelBackgroundColor=none;strokeWidth=3;fontFamily=Helvetica;fontSize=14;align=center;spacing=5;fontStyle=1;arcSize=7;perimeterSpacing=2;fillColor=#1f78b4;strokeColor=#000000;" parent="1" vertex="1">
          <mxGeometry x="494" y="400" width="10" height="40" as="geometry" />
        </mxCell>
        <mxCell id="GxmYWCP9D9KNuWDRxBoi-2173" style="edgeStyle=orthogonalEdgeStyle;rounded=0;orthogonalLoop=1;jettySize=auto;html=1;entryX=0.5;entryY=1;entryDx=0;entryDy=0;endArrow=none;endFill=0;elbow=vertical;strokeWidth=2;" parent="1" source="GxmYWCP9D9KNuWDRxBoi-2149" target="GxmYWCP9D9KNuWDRxBoi-1787" edge="1">
          <mxGeometry relative="1" as="geometry" />
        </mxCell>
        <mxCell id="GxmYWCP9D9KNuWDRxBoi-2149" value="" style="rounded=1;whiteSpace=wrap;html=1;shadow=0;labelBackgroundColor=none;strokeWidth=3;fontFamily=Helvetica;fontSize=14;align=center;spacing=5;fontStyle=1;arcSize=7;perimeterSpacing=2;fillColor=#ff7f00;strokeColor=#000000;" parent="1" vertex="1">
          <mxGeometry x="514" y="400" width="10" height="40" as="geometry" />
        </mxCell>
        <mxCell id="GxmYWCP9D9KNuWDRxBoi-2174" style="edgeStyle=orthogonalEdgeStyle;rounded=0;orthogonalLoop=1;jettySize=auto;html=1;endArrow=none;endFill=0;elbow=vertical;strokeWidth=2;" parent="1" source="GxmYWCP9D9KNuWDRxBoi-2150" target="GxmYWCP9D9KNuWDRxBoi-1787" edge="1">
          <mxGeometry relative="1" as="geometry" />
        </mxCell>
        <mxCell id="GxmYWCP9D9KNuWDRxBoi-2150" value="" style="rounded=1;whiteSpace=wrap;html=1;shadow=0;labelBackgroundColor=none;strokeWidth=3;fontFamily=Helvetica;fontSize=14;align=center;spacing=5;fontStyle=1;arcSize=7;perimeterSpacing=2;fillColor=#ff7f00;strokeColor=#000000;" parent="1" vertex="1">
          <mxGeometry x="534" y="400" width="10" height="40" as="geometry" />
        </mxCell>
        <mxCell id="GxmYWCP9D9KNuWDRxBoi-2175" style="edgeStyle=orthogonalEdgeStyle;rounded=0;orthogonalLoop=1;jettySize=auto;html=1;entryX=0.5;entryY=1;entryDx=0;entryDy=0;endArrow=none;endFill=0;elbow=vertical;strokeWidth=2;" parent="1" source="GxmYWCP9D9KNuWDRxBoi-2151" target="GxmYWCP9D9KNuWDRxBoi-1787" edge="1">
          <mxGeometry relative="1" as="geometry">
            <Array as="points">
              <mxPoint x="559" y="360" />
              <mxPoint x="519" y="360" />
            </Array>
          </mxGeometry>
        </mxCell>
        <mxCell id="GxmYWCP9D9KNuWDRxBoi-2151" value="" style="rounded=1;whiteSpace=wrap;html=1;shadow=0;labelBackgroundColor=none;strokeWidth=3;fontFamily=Helvetica;fontSize=14;align=center;spacing=5;fontStyle=1;arcSize=7;perimeterSpacing=2;fillColor=#ff7f00;strokeColor=#000000;" parent="1" vertex="1">
          <mxGeometry x="554" y="400" width="10" height="40" as="geometry" />
        </mxCell>
        <mxCell id="GxmYWCP9D9KNuWDRxBoi-2191" style="edgeStyle=orthogonalEdgeStyle;rounded=0;orthogonalLoop=1;jettySize=auto;html=1;endArrow=none;endFill=0;elbow=vertical;strokeWidth=2;" parent="1" source="GxmYWCP9D9KNuWDRxBoi-2152" edge="1">
          <mxGeometry relative="1" as="geometry">
            <mxPoint x="634" y="320" as="targetPoint" />
            <Array as="points">
              <mxPoint x="594" y="360" />
              <mxPoint x="634" y="360" />
            </Array>
          </mxGeometry>
        </mxCell>
        <mxCell id="GxmYWCP9D9KNuWDRxBoi-2152" value="" style="rounded=1;whiteSpace=wrap;html=1;shadow=0;labelBackgroundColor=none;strokeWidth=3;fontFamily=Helvetica;fontSize=14;align=center;spacing=5;fontStyle=1;arcSize=7;perimeterSpacing=2;fillColor=#1f78b4;strokeColor=#000000;" parent="1" vertex="1">
          <mxGeometry x="589" y="400" width="10" height="40" as="geometry" />
        </mxCell>
        <mxCell id="GxmYWCP9D9KNuWDRxBoi-2190" style="edgeStyle=orthogonalEdgeStyle;rounded=0;orthogonalLoop=1;jettySize=auto;html=1;endArrow=none;endFill=0;elbow=vertical;strokeWidth=2;" parent="1" source="GxmYWCP9D9KNuWDRxBoi-2153" edge="1">
          <mxGeometry relative="1" as="geometry">
            <mxPoint x="634" y="320" as="targetPoint" />
            <Array as="points">
              <mxPoint x="614" y="360" />
              <mxPoint x="634" y="360" />
            </Array>
          </mxGeometry>
        </mxCell>
        <mxCell id="GxmYWCP9D9KNuWDRxBoi-2153" value="" style="rounded=1;whiteSpace=wrap;html=1;shadow=0;labelBackgroundColor=none;strokeWidth=3;fontFamily=Helvetica;fontSize=14;align=center;spacing=5;fontStyle=1;arcSize=7;perimeterSpacing=2;fillColor=#1f78b4;strokeColor=#000000;" parent="1" vertex="1">
          <mxGeometry x="609" y="400" width="10" height="40" as="geometry" />
        </mxCell>
        <mxCell id="GxmYWCP9D9KNuWDRxBoi-2187" style="edgeStyle=orthogonalEdgeStyle;rounded=0;orthogonalLoop=1;jettySize=auto;html=1;entryX=0.5;entryY=0.955;entryDx=0;entryDy=0;entryPerimeter=0;endArrow=none;endFill=0;elbow=vertical;strokeWidth=2;" parent="1" source="GxmYWCP9D9KNuWDRxBoi-2154" target="GxmYWCP9D9KNuWDRxBoi-1788" edge="1">
          <mxGeometry relative="1" as="geometry" />
        </mxCell>
        <mxCell id="GxmYWCP9D9KNuWDRxBoi-2154" value="" style="rounded=1;whiteSpace=wrap;html=1;shadow=0;labelBackgroundColor=none;strokeWidth=3;fontFamily=Helvetica;fontSize=14;align=center;spacing=5;fontStyle=1;arcSize=7;perimeterSpacing=2;fillColor=#1f78b4;strokeColor=#000000;" parent="1" vertex="1">
          <mxGeometry x="629" y="400" width="10" height="40" as="geometry" />
        </mxCell>
        <mxCell id="GxmYWCP9D9KNuWDRxBoi-2188" style="edgeStyle=orthogonalEdgeStyle;rounded=0;orthogonalLoop=1;jettySize=auto;html=1;endArrow=none;endFill=0;elbow=vertical;strokeWidth=2;" parent="1" source="GxmYWCP9D9KNuWDRxBoi-2155" edge="1">
          <mxGeometry relative="1" as="geometry">
            <mxPoint x="634" y="320" as="targetPoint" />
            <Array as="points">
              <mxPoint x="654" y="360" />
              <mxPoint x="634" y="360" />
            </Array>
          </mxGeometry>
        </mxCell>
        <mxCell id="GxmYWCP9D9KNuWDRxBoi-2155" value="" style="rounded=1;whiteSpace=wrap;html=1;shadow=0;labelBackgroundColor=none;strokeWidth=3;fontFamily=Helvetica;fontSize=14;align=center;spacing=5;fontStyle=1;arcSize=7;perimeterSpacing=2;fillColor=#ff7f00;strokeColor=#000000;" parent="1" vertex="1">
          <mxGeometry x="649" y="400" width="10" height="40" as="geometry" />
        </mxCell>
        <mxCell id="GxmYWCP9D9KNuWDRxBoi-2189" style="edgeStyle=orthogonalEdgeStyle;rounded=0;orthogonalLoop=1;jettySize=auto;html=1;endArrow=none;endFill=0;elbow=vertical;strokeWidth=2;" parent="1" source="GxmYWCP9D9KNuWDRxBoi-2156" edge="1">
          <mxGeometry relative="1" as="geometry">
            <mxPoint x="634" y="320" as="targetPoint" />
            <Array as="points">
              <mxPoint x="674" y="360" />
              <mxPoint x="634" y="360" />
            </Array>
          </mxGeometry>
        </mxCell>
        <mxCell id="GxmYWCP9D9KNuWDRxBoi-2156" value="" style="rounded=1;whiteSpace=wrap;html=1;shadow=0;labelBackgroundColor=none;strokeWidth=3;fontFamily=Helvetica;fontSize=14;align=center;spacing=5;fontStyle=1;arcSize=7;perimeterSpacing=2;fillColor=#ff7f00;strokeColor=#000000;" parent="1" vertex="1">
          <mxGeometry x="669" y="400" width="10" height="40" as="geometry" />
        </mxCell>
        <mxCell id="GxmYWCP9D9KNuWDRxBoi-2214" value="&lt;span style=&quot;font-weight: normal;&quot;&gt;&lt;font style=&quot;font-size: 20px;&quot;&gt;Batch&lt;/font&gt;&lt;/span&gt;" style="text;strokeColor=none;fillColor=none;html=1;fontSize=24;fontStyle=1;verticalAlign=middle;align=left;" parent="1" vertex="1">
          <mxGeometry x="760" y="280" width="100" height="40" as="geometry" />
        </mxCell>
        <mxCell id="GxmYWCP9D9KNuWDRxBoi-2215" value="&lt;span style=&quot;font-weight: normal;&quot;&gt;&lt;font style=&quot;font-size: 20px;&quot;&gt;Sample&lt;/font&gt;&lt;/span&gt;" style="text;strokeColor=none;fillColor=none;html=1;fontSize=24;fontStyle=1;verticalAlign=middle;align=left;" parent="1" vertex="1">
          <mxGeometry x="760" y="400" width="100" height="40" as="geometry" />
        </mxCell>
        <mxCell id="GxmYWCP9D9KNuWDRxBoi-2216" value="&lt;span style=&quot;font-weight: normal;&quot;&gt;&lt;font style=&quot;font-size: 20px;&quot;&gt;Scenario&lt;/font&gt;&lt;/span&gt;" style="text;strokeColor=none;fillColor=none;html=1;fontSize=24;fontStyle=1;verticalAlign=middle;align=left;" parent="1" vertex="1">
          <mxGeometry x="760" y="160" width="100" height="40" as="geometry" />
        </mxCell>
        <mxCell id="GxmYWCP9D9KNuWDRxBoi-2217" value="" style="rounded=1;whiteSpace=wrap;html=1;strokeColor=#000000;fillColor=#ff7f00;fontSize=14;shadow=0;labelBackgroundColor=none;strokeWidth=3;spacing=5;fontStyle=1;arcSize=7;" parent="1" vertex="1">
          <mxGeometry x="506.5" y="850" width="20" height="20" as="geometry" />
        </mxCell>
        <mxCell id="GxmYWCP9D9KNuWDRxBoi-2218" value="" style="rounded=1;whiteSpace=wrap;html=1;strokeColor=#000000;fillColor=#1f78b4;fontSize=14;shadow=0;labelBackgroundColor=none;strokeWidth=3;spacing=5;fontStyle=1;arcSize=7;" parent="1" vertex="1">
          <mxGeometry x="333.5" y="850" width="20" height="20" as="geometry" />
        </mxCell>
        <mxCell id="GxmYWCP9D9KNuWDRxBoi-2220" value="&lt;font style=&quot;font-size: 20px; font-weight: normal;&quot;&gt;Condition1&lt;/font&gt;" style="text;strokeColor=none;fillColor=none;html=1;fontSize=24;fontStyle=1;verticalAlign=middle;align=center;" parent="1" vertex="1">
          <mxGeometry x="365.5" y="840" width="100" height="40" as="geometry" />
        </mxCell>
        <mxCell id="GxmYWCP9D9KNuWDRxBoi-2221" value="&lt;font style=&quot;font-size: 20px; font-weight: normal;&quot;&gt;Condition2&lt;/font&gt;" style="text;strokeColor=none;fillColor=none;html=1;fontSize=24;fontStyle=1;verticalAlign=middle;align=center;" parent="1" vertex="1">
          <mxGeometry x="535.5" y="840" width="100" height="40" as="geometry" />
        </mxCell>
        <mxCell id="GxmYWCP9D9KNuWDRxBoi-2222" value="&lt;font style=&quot;font-size: 20px; font-weight: normal;&quot;&gt;Condition:&lt;/font&gt;" style="text;strokeColor=none;fillColor=none;html=1;fontSize=24;fontStyle=1;verticalAlign=middle;align=center;" parent="1" vertex="1">
          <mxGeometry x="193.5" y="840" width="100" height="40" as="geometry" />
        </mxCell>
        <mxCell id="MctHvchrn3k6c2pTErhQ-1805" style="edgeStyle=orthogonalEdgeStyle;rounded=0;orthogonalLoop=1;jettySize=auto;html=1;entryX=0.5;entryY=0;entryDx=0;entryDy=0;endArrow=none;endFill=0;strokeWidth=2;exitX=0.5;exitY=1;exitDx=0;exitDy=0;" parent="1" source="MctHvchrn3k6c2pTErhQ-1753" target="MctHvchrn3k6c2pTErhQ-1755" edge="1">
          <mxGeometry relative="1" as="geometry">
            <mxPoint x="501.5" y="590" as="sourcePoint" />
            <Array as="points">
              <mxPoint x="521" y="600" />
              <mxPoint x="413" y="600" />
              <mxPoint x="413" y="638" />
            </Array>
          </mxGeometry>
        </mxCell>
        <mxCell id="MctHvchrn3k6c2pTErhQ-1806" style="edgeStyle=orthogonalEdgeStyle;rounded=0;orthogonalLoop=1;jettySize=auto;html=1;entryX=0.5;entryY=0;entryDx=0;entryDy=0;endArrow=none;endFill=0;strokeWidth=2;" parent="1" source="MctHvchrn3k6c2pTErhQ-1753" target="MctHvchrn3k6c2pTErhQ-1759" edge="1">
          <mxGeometry relative="1" as="geometry">
            <Array as="points">
              <mxPoint x="521" y="600" />
              <mxPoint x="631" y="600" />
            </Array>
          </mxGeometry>
        </mxCell>
        <mxCell id="MctHvchrn3k6c2pTErhQ-1753" value="&lt;font size=&quot;4&quot;&gt;Atlas with unbalanced conditions&lt;/font&gt;" style="rounded=1;whiteSpace=wrap;html=1;shadow=0;labelBackgroundColor=none;strokeWidth=3;fontFamily=Helvetica;fontSize=14;align=center;spacing=5;fontStyle=1;arcSize=7;perimeterSpacing=2;" parent="1" vertex="1">
          <mxGeometry x="445.5" y="500" width="150" height="70" as="geometry" />
        </mxCell>
        <mxCell id="MctHvchrn3k6c2pTErhQ-1879" style="edgeStyle=orthogonalEdgeStyle;rounded=0;orthogonalLoop=1;jettySize=auto;html=1;entryX=0.5;entryY=0.045;entryDx=0;entryDy=0;entryPerimeter=0;endArrow=none;endFill=0;strokeWidth=2;" parent="1" source="MctHvchrn3k6c2pTErhQ-1755" target="MctHvchrn3k6c2pTErhQ-1871" edge="1">
          <mxGeometry relative="1" as="geometry" />
        </mxCell>
        <mxCell id="MctHvchrn3k6c2pTErhQ-1880" style="edgeStyle=orthogonalEdgeStyle;rounded=0;orthogonalLoop=1;jettySize=auto;html=1;entryX=0.5;entryY=0;entryDx=0;entryDy=0;endArrow=none;endFill=0;strokeWidth=2;" parent="1" source="MctHvchrn3k6c2pTErhQ-1755" target="MctHvchrn3k6c2pTErhQ-1872" edge="1">
          <mxGeometry relative="1" as="geometry" />
        </mxCell>
        <mxCell id="MctHvchrn3k6c2pTErhQ-1755" value="" style="rounded=1;whiteSpace=wrap;html=1;shadow=0;labelBackgroundColor=none;strokeWidth=3;fontFamily=Helvetica;fontSize=14;align=center;spacing=5;fontStyle=1;arcSize=7;perimeterSpacing=2;" parent="1" vertex="1">
          <mxGeometry x="391.5" y="640" width="40" height="40" as="geometry" />
        </mxCell>
        <mxCell id="MctHvchrn3k6c2pTErhQ-1827" style="edgeStyle=orthogonalEdgeStyle;rounded=0;orthogonalLoop=1;jettySize=auto;html=1;entryX=0.5;entryY=0;entryDx=0;entryDy=0;endArrow=none;endFill=0;strokeWidth=2;" parent="1" source="MctHvchrn3k6c2pTErhQ-1759" target="MctHvchrn3k6c2pTErhQ-1781" edge="1">
          <mxGeometry relative="1" as="geometry">
            <Array as="points">
              <mxPoint x="630.5" y="720" />
              <mxPoint x="540.5" y="720" />
            </Array>
          </mxGeometry>
        </mxCell>
        <mxCell id="MctHvchrn3k6c2pTErhQ-1828" style="edgeStyle=orthogonalEdgeStyle;rounded=0;orthogonalLoop=1;jettySize=auto;html=1;entryX=0.5;entryY=0;entryDx=0;entryDy=0;endArrow=none;endFill=0;strokeWidth=2;" parent="1" source="MctHvchrn3k6c2pTErhQ-1759" target="MctHvchrn3k6c2pTErhQ-1787" edge="1">
          <mxGeometry relative="1" as="geometry">
            <Array as="points">
              <mxPoint x="630.5" y="720" />
              <mxPoint x="560.5" y="720" />
            </Array>
          </mxGeometry>
        </mxCell>
        <mxCell id="MctHvchrn3k6c2pTErhQ-1829" style="edgeStyle=orthogonalEdgeStyle;rounded=0;orthogonalLoop=1;jettySize=auto;html=1;entryX=0.5;entryY=0;entryDx=0;entryDy=0;endArrow=none;endFill=0;strokeWidth=2;" parent="1" source="MctHvchrn3k6c2pTErhQ-1759" target="MctHvchrn3k6c2pTErhQ-1798" edge="1">
          <mxGeometry relative="1" as="geometry">
            <Array as="points">
              <mxPoint x="630.5" y="720" />
              <mxPoint x="581.5" y="720" />
            </Array>
          </mxGeometry>
        </mxCell>
        <mxCell id="MctHvchrn3k6c2pTErhQ-1830" style="edgeStyle=orthogonalEdgeStyle;rounded=0;orthogonalLoop=1;jettySize=auto;html=1;entryX=0.5;entryY=0;entryDx=0;entryDy=0;endArrow=none;endFill=0;strokeWidth=2;" parent="1" source="MctHvchrn3k6c2pTErhQ-1759" target="MctHvchrn3k6c2pTErhQ-1789" edge="1">
          <mxGeometry relative="1" as="geometry">
            <Array as="points">
              <mxPoint x="630.5" y="720" />
              <mxPoint x="600.5" y="720" />
            </Array>
          </mxGeometry>
        </mxCell>
        <mxCell id="MctHvchrn3k6c2pTErhQ-1831" style="edgeStyle=orthogonalEdgeStyle;rounded=0;orthogonalLoop=1;jettySize=auto;html=1;entryX=0.5;entryY=0;entryDx=0;entryDy=0;endArrow=none;endFill=0;strokeWidth=2;" parent="1" source="MctHvchrn3k6c2pTErhQ-1759" target="MctHvchrn3k6c2pTErhQ-1799" edge="1">
          <mxGeometry relative="1" as="geometry" />
        </mxCell>
        <mxCell id="MctHvchrn3k6c2pTErhQ-1832" style="edgeStyle=orthogonalEdgeStyle;rounded=0;orthogonalLoop=1;jettySize=auto;html=1;entryX=0.5;entryY=0;entryDx=0;entryDy=0;endArrow=none;endFill=0;strokeWidth=2;" parent="1" source="MctHvchrn3k6c2pTErhQ-1759" target="MctHvchrn3k6c2pTErhQ-1800" edge="1">
          <mxGeometry relative="1" as="geometry" />
        </mxCell>
        <mxCell id="MctHvchrn3k6c2pTErhQ-1833" style="edgeStyle=orthogonalEdgeStyle;rounded=0;orthogonalLoop=1;jettySize=auto;html=1;entryX=0.5;entryY=0;entryDx=0;entryDy=0;endArrow=none;endFill=0;strokeWidth=2;" parent="1" source="MctHvchrn3k6c2pTErhQ-1759" target="MctHvchrn3k6c2pTErhQ-1801" edge="1">
          <mxGeometry relative="1" as="geometry">
            <Array as="points">
              <mxPoint x="630.5" y="720" />
              <mxPoint x="660.5" y="720" />
            </Array>
          </mxGeometry>
        </mxCell>
        <mxCell id="MctHvchrn3k6c2pTErhQ-1834" style="edgeStyle=orthogonalEdgeStyle;rounded=0;orthogonalLoop=1;jettySize=auto;html=1;entryX=0.5;entryY=0;entryDx=0;entryDy=0;endArrow=none;endFill=0;strokeWidth=2;" parent="1" source="MctHvchrn3k6c2pTErhQ-1759" target="MctHvchrn3k6c2pTErhQ-1802" edge="1">
          <mxGeometry relative="1" as="geometry">
            <Array as="points">
              <mxPoint x="630.5" y="720" />
              <mxPoint x="679.5" y="720" />
            </Array>
          </mxGeometry>
        </mxCell>
        <mxCell id="MctHvchrn3k6c2pTErhQ-1835" style="edgeStyle=orthogonalEdgeStyle;rounded=0;orthogonalLoop=1;jettySize=auto;html=1;entryX=0.5;entryY=0;entryDx=0;entryDy=0;endArrow=none;endFill=0;strokeWidth=2;" parent="1" source="MctHvchrn3k6c2pTErhQ-1759" target="MctHvchrn3k6c2pTErhQ-1803" edge="1">
          <mxGeometry relative="1" as="geometry">
            <Array as="points">
              <mxPoint x="630.5" y="720" />
              <mxPoint x="696.5" y="720" />
            </Array>
          </mxGeometry>
        </mxCell>
        <mxCell id="MctHvchrn3k6c2pTErhQ-1836" style="edgeStyle=orthogonalEdgeStyle;rounded=0;orthogonalLoop=1;jettySize=auto;html=1;entryX=0.5;entryY=0;entryDx=0;entryDy=0;endArrow=none;endFill=0;strokeWidth=2;" parent="1" source="MctHvchrn3k6c2pTErhQ-1759" target="MctHvchrn3k6c2pTErhQ-1804" edge="1">
          <mxGeometry relative="1" as="geometry">
            <Array as="points">
              <mxPoint x="630.5" y="720" />
              <mxPoint x="716.5" y="720" />
            </Array>
          </mxGeometry>
        </mxCell>
        <mxCell id="MctHvchrn3k6c2pTErhQ-1759" value="" style="rounded=1;whiteSpace=wrap;html=1;shadow=0;labelBackgroundColor=none;strokeWidth=3;fontFamily=Helvetica;fontSize=14;align=center;spacing=5;fontStyle=1;arcSize=7;perimeterSpacing=2;" parent="1" vertex="1">
          <mxGeometry x="610.5" y="640" width="40" height="40" as="geometry" />
        </mxCell>
        <mxCell id="MctHvchrn3k6c2pTErhQ-1781" value="" style="rounded=1;whiteSpace=wrap;html=1;shadow=0;labelBackgroundColor=none;strokeWidth=3;fontFamily=Helvetica;fontSize=14;align=center;spacing=5;fontStyle=1;arcSize=7;perimeterSpacing=2;fillColor=#1f78b4;strokeColor=#000000;" parent="1" vertex="1">
          <mxGeometry x="535.5" y="760" width="10" height="40" as="geometry" />
        </mxCell>
        <mxCell id="MctHvchrn3k6c2pTErhQ-1787" value="" style="rounded=1;whiteSpace=wrap;html=1;shadow=0;labelBackgroundColor=none;strokeWidth=3;fontFamily=Helvetica;fontSize=14;align=center;spacing=5;fontStyle=1;arcSize=7;perimeterSpacing=2;fillColor=#ff7f00;strokeColor=#000000;" parent="1" vertex="1">
          <mxGeometry x="555.5" y="760" width="10" height="40" as="geometry" />
        </mxCell>
        <mxCell id="MctHvchrn3k6c2pTErhQ-1789" value="" style="rounded=1;whiteSpace=wrap;html=1;shadow=0;labelBackgroundColor=none;strokeWidth=3;fontFamily=Helvetica;fontSize=14;align=center;spacing=5;fontStyle=1;arcSize=7;perimeterSpacing=2;fillColor=#ff7f00;strokeColor=#000000;" parent="1" vertex="1">
          <mxGeometry x="595.5" y="760" width="10" height="40" as="geometry" />
        </mxCell>
        <mxCell id="MctHvchrn3k6c2pTErhQ-1790" value="&lt;font size=&quot;4&quot;&gt;Dataset with unbalanced cell numbers&lt;/font&gt;" style="rounded=1;whiteSpace=wrap;html=1;shadow=0;labelBackgroundColor=none;strokeWidth=3;fontFamily=Helvetica;fontSize=14;align=center;spacing=5;fontStyle=1;arcSize=7;perimeterSpacing=2;" parent="1" vertex="1">
          <mxGeometry x="100" y="500" width="150" height="70" as="geometry" />
        </mxCell>
        <mxCell id="MctHvchrn3k6c2pTErhQ-1798" value="" style="rounded=1;whiteSpace=wrap;html=1;shadow=0;labelBackgroundColor=none;strokeWidth=3;fontFamily=Helvetica;fontSize=14;align=center;spacing=5;fontStyle=1;arcSize=7;perimeterSpacing=2;fillColor=#ff7f00;strokeColor=#000000;" parent="1" vertex="1">
          <mxGeometry x="576.5" y="760" width="10" height="40" as="geometry" />
        </mxCell>
        <mxCell id="MctHvchrn3k6c2pTErhQ-1799" value="" style="rounded=1;whiteSpace=wrap;html=1;shadow=0;labelBackgroundColor=none;strokeWidth=3;fontFamily=Helvetica;fontSize=14;align=center;spacing=5;fontStyle=1;arcSize=7;perimeterSpacing=2;fillColor=#ff7f00;strokeColor=#000000;" parent="1" vertex="1">
          <mxGeometry x="615.5" y="760" width="10" height="40" as="geometry" />
        </mxCell>
        <mxCell id="MctHvchrn3k6c2pTErhQ-1800" value="" style="rounded=1;whiteSpace=wrap;html=1;shadow=0;labelBackgroundColor=none;strokeWidth=3;fontFamily=Helvetica;fontSize=14;align=center;spacing=5;fontStyle=1;arcSize=7;perimeterSpacing=2;fillColor=#ff7f00;strokeColor=#000000;" parent="1" vertex="1">
          <mxGeometry x="635.5" y="760" width="10" height="40" as="geometry" />
        </mxCell>
        <mxCell id="MctHvchrn3k6c2pTErhQ-1801" value="" style="rounded=1;whiteSpace=wrap;html=1;shadow=0;labelBackgroundColor=none;strokeWidth=3;fontFamily=Helvetica;fontSize=14;align=center;spacing=5;fontStyle=1;arcSize=7;perimeterSpacing=2;fillColor=#ff7f00;strokeColor=#000000;" parent="1" vertex="1">
          <mxGeometry x="655.5" y="760" width="10" height="40" as="geometry" />
        </mxCell>
        <mxCell id="MctHvchrn3k6c2pTErhQ-1802" value="" style="rounded=1;whiteSpace=wrap;html=1;shadow=0;labelBackgroundColor=none;strokeWidth=3;fontFamily=Helvetica;fontSize=14;align=center;spacing=5;fontStyle=1;arcSize=7;perimeterSpacing=2;fillColor=#ff7f00;strokeColor=#000000;" parent="1" vertex="1">
          <mxGeometry x="674.5" y="760" width="10" height="40" as="geometry" />
        </mxCell>
        <mxCell id="MctHvchrn3k6c2pTErhQ-1803" value="" style="rounded=1;whiteSpace=wrap;html=1;shadow=0;labelBackgroundColor=none;strokeWidth=3;fontFamily=Helvetica;fontSize=14;align=center;spacing=5;fontStyle=1;arcSize=7;perimeterSpacing=2;fillColor=#ff7f00;strokeColor=#000000;" parent="1" vertex="1">
          <mxGeometry x="691.5" y="760" width="10" height="40" as="geometry" />
        </mxCell>
        <mxCell id="MctHvchrn3k6c2pTErhQ-1804" value="" style="rounded=1;whiteSpace=wrap;html=1;shadow=0;labelBackgroundColor=none;strokeWidth=3;fontFamily=Helvetica;fontSize=14;align=center;spacing=5;fontStyle=1;arcSize=7;perimeterSpacing=2;fillColor=#ff7f00;strokeColor=#000000;" parent="1" vertex="1">
          <mxGeometry x="711.5" y="760" width="10" height="40" as="geometry" />
        </mxCell>
        <mxCell id="MctHvchrn3k6c2pTErhQ-1857" style="edgeStyle=orthogonalEdgeStyle;rounded=0;orthogonalLoop=1;jettySize=auto;html=1;entryX=0.5;entryY=0;entryDx=0;entryDy=0;endArrow=none;endFill=0;strokeWidth=2;" parent="1" target="MctHvchrn3k6c2pTErhQ-1867" edge="1">
          <mxGeometry relative="1" as="geometry">
            <mxPoint x="411.5" y="682" as="sourcePoint" />
            <Array as="points">
              <mxPoint x="411.5" y="720" />
              <mxPoint x="321.5" y="720" />
            </Array>
          </mxGeometry>
        </mxCell>
        <mxCell id="MctHvchrn3k6c2pTErhQ-1858" style="edgeStyle=orthogonalEdgeStyle;rounded=0;orthogonalLoop=1;jettySize=auto;html=1;entryX=0.5;entryY=0;entryDx=0;entryDy=0;endArrow=none;endFill=0;strokeWidth=2;" parent="1" target="MctHvchrn3k6c2pTErhQ-1868" edge="1">
          <mxGeometry relative="1" as="geometry">
            <mxPoint x="411.5" y="682" as="sourcePoint" />
            <Array as="points">
              <mxPoint x="411.5" y="720" />
              <mxPoint x="341.5" y="720" />
            </Array>
          </mxGeometry>
        </mxCell>
        <mxCell id="MctHvchrn3k6c2pTErhQ-1859" style="edgeStyle=orthogonalEdgeStyle;rounded=0;orthogonalLoop=1;jettySize=auto;html=1;entryX=0.5;entryY=0;entryDx=0;entryDy=0;endArrow=none;endFill=0;strokeWidth=2;" parent="1" target="MctHvchrn3k6c2pTErhQ-1870" edge="1">
          <mxGeometry relative="1" as="geometry">
            <mxPoint x="411.5" y="682" as="sourcePoint" />
            <Array as="points">
              <mxPoint x="411.5" y="720" />
              <mxPoint x="362.5" y="720" />
            </Array>
          </mxGeometry>
        </mxCell>
        <mxCell id="MctHvchrn3k6c2pTErhQ-1860" style="edgeStyle=orthogonalEdgeStyle;rounded=0;orthogonalLoop=1;jettySize=auto;html=1;entryX=0.5;entryY=0;entryDx=0;entryDy=0;endArrow=none;endFill=0;strokeWidth=2;" parent="1" target="MctHvchrn3k6c2pTErhQ-1869" edge="1">
          <mxGeometry relative="1" as="geometry">
            <mxPoint x="411.5" y="682" as="sourcePoint" />
            <Array as="points">
              <mxPoint x="411.5" y="720" />
              <mxPoint x="381.5" y="720" />
            </Array>
          </mxGeometry>
        </mxCell>
        <mxCell id="MctHvchrn3k6c2pTErhQ-1863" style="edgeStyle=orthogonalEdgeStyle;rounded=0;orthogonalLoop=1;jettySize=auto;html=1;entryX=0.5;entryY=0;entryDx=0;entryDy=0;endArrow=none;endFill=0;strokeWidth=2;" parent="1" target="MctHvchrn3k6c2pTErhQ-1873" edge="1">
          <mxGeometry relative="1" as="geometry">
            <mxPoint x="411.5" y="682" as="sourcePoint" />
            <Array as="points">
              <mxPoint x="411.5" y="720" />
              <mxPoint x="441.5" y="720" />
            </Array>
          </mxGeometry>
        </mxCell>
        <mxCell id="MctHvchrn3k6c2pTErhQ-1864" style="edgeStyle=orthogonalEdgeStyle;rounded=0;orthogonalLoop=1;jettySize=auto;html=1;entryX=0.5;entryY=0;entryDx=0;entryDy=0;endArrow=none;endFill=0;strokeWidth=2;" parent="1" target="MctHvchrn3k6c2pTErhQ-1874" edge="1">
          <mxGeometry relative="1" as="geometry">
            <mxPoint x="411.5" y="682" as="sourcePoint" />
            <Array as="points">
              <mxPoint x="411.5" y="720" />
              <mxPoint x="460.5" y="720" />
            </Array>
          </mxGeometry>
        </mxCell>
        <mxCell id="MctHvchrn3k6c2pTErhQ-1865" style="edgeStyle=orthogonalEdgeStyle;rounded=0;orthogonalLoop=1;jettySize=auto;html=1;entryX=0.5;entryY=0;entryDx=0;entryDy=0;endArrow=none;endFill=0;strokeWidth=2;" parent="1" target="MctHvchrn3k6c2pTErhQ-1875" edge="1">
          <mxGeometry relative="1" as="geometry">
            <mxPoint x="411.5" y="682" as="sourcePoint" />
            <Array as="points">
              <mxPoint x="411.5" y="720" />
              <mxPoint x="477.5" y="720" />
            </Array>
          </mxGeometry>
        </mxCell>
        <mxCell id="MctHvchrn3k6c2pTErhQ-1866" style="edgeStyle=orthogonalEdgeStyle;rounded=0;orthogonalLoop=1;jettySize=auto;html=1;entryX=0.5;entryY=0;entryDx=0;entryDy=0;endArrow=none;endFill=0;strokeWidth=2;" parent="1" target="MctHvchrn3k6c2pTErhQ-1876" edge="1">
          <mxGeometry relative="1" as="geometry">
            <mxPoint x="411.5" y="682" as="sourcePoint" />
            <Array as="points">
              <mxPoint x="411.5" y="720" />
              <mxPoint x="497.5" y="720" />
            </Array>
          </mxGeometry>
        </mxCell>
        <mxCell id="MctHvchrn3k6c2pTErhQ-1867" value="" style="rounded=1;whiteSpace=wrap;html=1;shadow=0;labelBackgroundColor=none;strokeWidth=3;fontFamily=Helvetica;fontSize=14;align=center;spacing=5;fontStyle=1;arcSize=7;perimeterSpacing=2;fillColor=#1f78b4;strokeColor=#000000;" parent="1" vertex="1">
          <mxGeometry x="316.5" y="760" width="10" height="40" as="geometry" />
        </mxCell>
        <mxCell id="MctHvchrn3k6c2pTErhQ-1868" value="" style="rounded=1;whiteSpace=wrap;html=1;shadow=0;labelBackgroundColor=none;strokeWidth=3;fontFamily=Helvetica;fontSize=14;align=center;spacing=5;fontStyle=1;arcSize=7;perimeterSpacing=2;fillColor=#1f78b4;strokeColor=#000000;" parent="1" vertex="1">
          <mxGeometry x="336.5" y="760" width="10" height="40" as="geometry" />
        </mxCell>
        <mxCell id="MctHvchrn3k6c2pTErhQ-1869" value="" style="rounded=1;whiteSpace=wrap;html=1;shadow=0;labelBackgroundColor=none;strokeWidth=3;fontFamily=Helvetica;fontSize=14;align=center;spacing=5;fontStyle=1;arcSize=7;perimeterSpacing=2;fillColor=#1f78b4;strokeColor=#000000;" parent="1" vertex="1">
          <mxGeometry x="376.5" y="760" width="10" height="40" as="geometry" />
        </mxCell>
        <mxCell id="MctHvchrn3k6c2pTErhQ-1870" value="" style="rounded=1;whiteSpace=wrap;html=1;shadow=0;labelBackgroundColor=none;strokeWidth=3;fontFamily=Helvetica;fontSize=14;align=center;spacing=5;fontStyle=1;arcSize=7;perimeterSpacing=2;fillColor=#1f78b4;strokeColor=#000000;" parent="1" vertex="1">
          <mxGeometry x="357.5" y="760" width="10" height="40" as="geometry" />
        </mxCell>
        <mxCell id="MctHvchrn3k6c2pTErhQ-1871" value="" style="rounded=1;whiteSpace=wrap;html=1;shadow=0;labelBackgroundColor=none;strokeWidth=3;fontFamily=Helvetica;fontSize=14;align=center;spacing=5;fontStyle=1;arcSize=7;perimeterSpacing=2;fillColor=#1f78b4;strokeColor=#000000;" parent="1" vertex="1">
          <mxGeometry x="396.5" y="760" width="10" height="40" as="geometry" />
        </mxCell>
        <mxCell id="MctHvchrn3k6c2pTErhQ-1872" value="" style="rounded=1;whiteSpace=wrap;html=1;shadow=0;labelBackgroundColor=none;strokeWidth=3;fontFamily=Helvetica;fontSize=14;align=center;spacing=5;fontStyle=1;arcSize=7;perimeterSpacing=2;fillColor=#1f78b4;strokeColor=#000000;" parent="1" vertex="1">
          <mxGeometry x="416.5" y="760" width="10" height="40" as="geometry" />
        </mxCell>
        <mxCell id="MctHvchrn3k6c2pTErhQ-1873" value="" style="rounded=1;whiteSpace=wrap;html=1;shadow=0;labelBackgroundColor=none;strokeWidth=3;fontFamily=Helvetica;fontSize=14;align=center;spacing=5;fontStyle=1;arcSize=7;perimeterSpacing=2;fillColor=#1f78b4;strokeColor=#000000;" parent="1" vertex="1">
          <mxGeometry x="436.5" y="760" width="10" height="40" as="geometry" />
        </mxCell>
        <mxCell id="MctHvchrn3k6c2pTErhQ-1874" value="" style="rounded=1;whiteSpace=wrap;html=1;shadow=0;labelBackgroundColor=none;strokeWidth=3;fontFamily=Helvetica;fontSize=14;align=center;spacing=5;fontStyle=1;arcSize=7;perimeterSpacing=2;fillColor=#1f78b4;strokeColor=#000000;" parent="1" vertex="1">
          <mxGeometry x="455.5" y="760" width="10" height="40" as="geometry" />
        </mxCell>
        <mxCell id="MctHvchrn3k6c2pTErhQ-1875" value="" style="rounded=1;whiteSpace=wrap;html=1;shadow=0;labelBackgroundColor=none;strokeWidth=3;fontFamily=Helvetica;fontSize=14;align=center;spacing=5;fontStyle=1;arcSize=7;perimeterSpacing=2;fillColor=#1f78b4;strokeColor=#000000;" parent="1" vertex="1">
          <mxGeometry x="472.5" y="760" width="10" height="40" as="geometry" />
        </mxCell>
        <mxCell id="MctHvchrn3k6c2pTErhQ-1876" value="" style="rounded=1;whiteSpace=wrap;html=1;shadow=0;labelBackgroundColor=none;strokeWidth=3;fontFamily=Helvetica;fontSize=14;align=center;spacing=5;fontStyle=1;arcSize=7;perimeterSpacing=2;fillColor=#ff7f00;strokeColor=#000000;" parent="1" vertex="1">
          <mxGeometry x="492.5" y="760" width="10" height="40" as="geometry" />
        </mxCell>
        <mxCell id="MctHvchrn3k6c2pTErhQ-1881" style="orthogonalLoop=1;jettySize=auto;html=1;entryX=0.5;entryY=0;entryDx=0;entryDy=0;rounded=0;elbow=vertical;edgeStyle=orthogonalEdgeStyle;endArrow=none;endFill=0;strokeWidth=2;" parent="1" target="MctHvchrn3k6c2pTErhQ-1888" edge="1">
          <mxGeometry relative="1" as="geometry">
            <Array as="points">
              <mxPoint x="175" y="720" />
              <mxPoint x="85" y="720" />
            </Array>
            <mxPoint x="175" y="570" as="sourcePoint" />
          </mxGeometry>
        </mxCell>
        <mxCell id="MctHvchrn3k6c2pTErhQ-1882" style="edgeStyle=orthogonalEdgeStyle;rounded=0;orthogonalLoop=1;jettySize=auto;html=1;entryX=0.5;entryY=0;entryDx=0;entryDy=0;endArrow=none;endFill=0;elbow=vertical;strokeWidth=2;" parent="1" target="MctHvchrn3k6c2pTErhQ-1893" edge="1">
          <mxGeometry relative="1" as="geometry">
            <Array as="points">
              <mxPoint x="175" y="720" />
              <mxPoint x="145" y="720" />
            </Array>
            <mxPoint x="175" y="570" as="sourcePoint" />
          </mxGeometry>
        </mxCell>
        <mxCell id="MctHvchrn3k6c2pTErhQ-1883" style="edgeStyle=orthogonalEdgeStyle;rounded=0;orthogonalLoop=1;jettySize=auto;html=1;entryX=0.5;entryY=0;entryDx=0;entryDy=0;endArrow=none;endFill=0;elbow=vertical;strokeWidth=2;" parent="1" target="MctHvchrn3k6c2pTErhQ-1894" edge="1">
          <mxGeometry relative="1" as="geometry">
            <Array as="points">
              <mxPoint x="175" y="720" />
              <mxPoint x="165" y="720" />
            </Array>
            <mxPoint x="176" y="570" as="sourcePoint" />
          </mxGeometry>
        </mxCell>
        <mxCell id="MctHvchrn3k6c2pTErhQ-1884" style="edgeStyle=orthogonalEdgeStyle;rounded=0;orthogonalLoop=1;jettySize=auto;html=1;entryX=0.5;entryY=0;entryDx=0;entryDy=0;endArrow=none;endFill=0;elbow=vertical;strokeWidth=2;" parent="1" target="MctHvchrn3k6c2pTErhQ-1895" edge="1">
          <mxGeometry relative="1" as="geometry">
            <Array as="points">
              <mxPoint x="175" y="720" />
              <mxPoint x="185" y="720" />
            </Array>
            <mxPoint x="176" y="570" as="sourcePoint" />
          </mxGeometry>
        </mxCell>
        <mxCell id="MctHvchrn3k6c2pTErhQ-1885" style="edgeStyle=orthogonalEdgeStyle;rounded=0;orthogonalLoop=1;jettySize=auto;html=1;entryX=0.5;entryY=0;entryDx=0;entryDy=0;endArrow=none;endFill=0;elbow=vertical;strokeWidth=2;" parent="1" target="MctHvchrn3k6c2pTErhQ-1896" edge="1">
          <mxGeometry relative="1" as="geometry">
            <Array as="points">
              <mxPoint x="175" y="720" />
              <mxPoint x="205" y="720" />
            </Array>
            <mxPoint x="175" y="570" as="sourcePoint" />
          </mxGeometry>
        </mxCell>
        <mxCell id="MctHvchrn3k6c2pTErhQ-1886" style="edgeStyle=orthogonalEdgeStyle;rounded=0;orthogonalLoop=1;jettySize=auto;html=1;endArrow=none;endFill=0;elbow=vertical;strokeWidth=2;" parent="1" source="MctHvchrn3k6c2pTErhQ-1887" edge="1">
          <mxGeometry relative="1" as="geometry">
            <Array as="points">
              <mxPoint x="265" y="720" />
              <mxPoint x="175" y="720" />
            </Array>
            <mxPoint x="175" y="570" as="targetPoint" />
          </mxGeometry>
        </mxCell>
        <mxCell id="MctHvchrn3k6c2pTErhQ-1887" value="" style="rounded=1;whiteSpace=wrap;html=1;shadow=0;labelBackgroundColor=none;strokeWidth=3;fontFamily=Helvetica;fontSize=14;align=center;spacing=5;fontStyle=1;arcSize=7;perimeterSpacing=2;fillColor=#ff7f00;strokeColor=#000000;" parent="1" vertex="1">
          <mxGeometry x="260" y="760" width="10" height="30" as="geometry" />
        </mxCell>
        <mxCell id="MctHvchrn3k6c2pTErhQ-1888" value="" style="rounded=1;whiteSpace=wrap;html=1;shadow=0;labelBackgroundColor=none;strokeWidth=3;fontFamily=Helvetica;fontSize=14;align=center;spacing=5;fontStyle=1;arcSize=7;perimeterSpacing=2;fillColor=#1f78b4;strokeColor=#000000;" parent="1" vertex="1">
          <mxGeometry x="80" y="760" width="10" height="10" as="geometry" />
        </mxCell>
        <mxCell id="MctHvchrn3k6c2pTErhQ-1889" style="edgeStyle=orthogonalEdgeStyle;rounded=0;orthogonalLoop=1;jettySize=auto;html=1;exitX=0.5;exitY=0;exitDx=0;exitDy=0;endArrow=none;endFill=0;elbow=vertical;strokeWidth=2;" parent="1" source="MctHvchrn3k6c2pTErhQ-1890" edge="1">
          <mxGeometry relative="1" as="geometry">
            <Array as="points">
              <mxPoint x="105" y="720" />
              <mxPoint x="175" y="720" />
            </Array>
            <mxPoint x="176" y="570" as="targetPoint" />
          </mxGeometry>
        </mxCell>
        <mxCell id="MctHvchrn3k6c2pTErhQ-1890" value="" style="rounded=1;whiteSpace=wrap;html=1;shadow=0;labelBackgroundColor=none;strokeWidth=3;fontFamily=Helvetica;fontSize=14;align=center;spacing=5;fontStyle=1;arcSize=7;perimeterSpacing=2;fillColor=#1f78b4;strokeColor=#000000;" parent="1" vertex="1">
          <mxGeometry x="100" y="760" width="10" height="20" as="geometry" />
        </mxCell>
        <mxCell id="MctHvchrn3k6c2pTErhQ-1891" style="edgeStyle=orthogonalEdgeStyle;rounded=0;orthogonalLoop=1;jettySize=auto;html=1;endArrow=none;endFill=0;elbow=vertical;strokeWidth=2;" parent="1" source="MctHvchrn3k6c2pTErhQ-1892" edge="1">
          <mxGeometry relative="1" as="geometry">
            <Array as="points">
              <mxPoint x="125" y="720" />
              <mxPoint x="175" y="720" />
            </Array>
            <mxPoint x="176" y="570" as="targetPoint" />
          </mxGeometry>
        </mxCell>
        <mxCell id="MctHvchrn3k6c2pTErhQ-1892" value="" style="rounded=1;whiteSpace=wrap;html=1;shadow=0;labelBackgroundColor=none;strokeWidth=3;fontFamily=Helvetica;fontSize=14;align=center;spacing=5;fontStyle=1;arcSize=7;perimeterSpacing=2;fillColor=#1f78b4;strokeColor=#000000;" parent="1" vertex="1">
          <mxGeometry x="120" y="760" width="10" height="10" as="geometry" />
        </mxCell>
        <mxCell id="MctHvchrn3k6c2pTErhQ-1893" value="" style="rounded=1;whiteSpace=wrap;html=1;shadow=0;labelBackgroundColor=none;strokeWidth=3;fontFamily=Helvetica;fontSize=14;align=center;spacing=5;fontStyle=1;arcSize=7;perimeterSpacing=2;fillColor=#1f78b4;strokeColor=#000000;" parent="1" vertex="1">
          <mxGeometry x="140" y="760" width="10" height="30" as="geometry" />
        </mxCell>
        <mxCell id="MctHvchrn3k6c2pTErhQ-1894" value="" style="rounded=1;whiteSpace=wrap;html=1;shadow=0;labelBackgroundColor=none;strokeWidth=3;fontFamily=Helvetica;fontSize=14;align=center;spacing=5;fontStyle=1;arcSize=7;perimeterSpacing=2;fillColor=#1f78b4;strokeColor=#000000;" parent="1" vertex="1">
          <mxGeometry x="160" y="760" width="10" height="40" as="geometry" />
        </mxCell>
        <mxCell id="MctHvchrn3k6c2pTErhQ-1895" value="" style="rounded=1;whiteSpace=wrap;html=1;shadow=0;labelBackgroundColor=none;strokeWidth=3;fontFamily=Helvetica;fontSize=14;align=center;spacing=5;fontStyle=1;arcSize=7;perimeterSpacing=2;fillColor=#ff7f00;strokeColor=#000000;" parent="1" vertex="1">
          <mxGeometry x="180" y="760" width="10" height="10" as="geometry" />
        </mxCell>
        <mxCell id="MctHvchrn3k6c2pTErhQ-1896" value="" style="rounded=1;whiteSpace=wrap;html=1;shadow=0;labelBackgroundColor=none;strokeWidth=3;fontFamily=Helvetica;fontSize=14;align=center;spacing=5;fontStyle=1;arcSize=7;perimeterSpacing=2;fillColor=#ff7f00;strokeColor=#000000;" parent="1" vertex="1">
          <mxGeometry x="200" y="760" width="10" height="40" as="geometry" />
        </mxCell>
        <mxCell id="MctHvchrn3k6c2pTErhQ-1897" style="edgeStyle=orthogonalEdgeStyle;rounded=0;orthogonalLoop=1;jettySize=auto;html=1;endArrow=none;endFill=0;elbow=vertical;strokeWidth=2;" parent="1" source="MctHvchrn3k6c2pTErhQ-1898" edge="1">
          <mxGeometry relative="1" as="geometry">
            <Array as="points">
              <mxPoint x="225" y="720" />
              <mxPoint x="175" y="720" />
              <mxPoint x="175" y="570" />
            </Array>
            <mxPoint x="176" y="570" as="targetPoint" />
          </mxGeometry>
        </mxCell>
        <mxCell id="MctHvchrn3k6c2pTErhQ-1898" value="" style="rounded=1;whiteSpace=wrap;html=1;shadow=0;labelBackgroundColor=none;strokeWidth=3;fontFamily=Helvetica;fontSize=14;align=center;spacing=5;fontStyle=1;arcSize=7;perimeterSpacing=2;fillColor=#ff7f00;strokeColor=#000000;" parent="1" vertex="1">
          <mxGeometry x="220" y="760" width="10" height="30" as="geometry" />
        </mxCell>
        <mxCell id="MctHvchrn3k6c2pTErhQ-1899" style="edgeStyle=orthogonalEdgeStyle;rounded=0;orthogonalLoop=1;jettySize=auto;html=1;endArrow=none;endFill=0;elbow=vertical;strokeWidth=2;" parent="1" source="MctHvchrn3k6c2pTErhQ-1900" edge="1">
          <mxGeometry relative="1" as="geometry">
            <Array as="points">
              <mxPoint x="245" y="720" />
              <mxPoint x="175" y="720" />
            </Array>
            <mxPoint x="175" y="570" as="targetPoint" />
          </mxGeometry>
        </mxCell>
        <mxCell id="MctHvchrn3k6c2pTErhQ-1900" value="" style="rounded=1;whiteSpace=wrap;html=1;shadow=0;labelBackgroundColor=none;strokeWidth=3;fontFamily=Helvetica;fontSize=14;align=center;spacing=5;fontStyle=1;arcSize=7;perimeterSpacing=2;fillColor=#ff7f00;strokeColor=#000000;" parent="1" vertex="1">
          <mxGeometry x="240" y="760" width="10" height="10" as="geometry" />
        </mxCell>
        <mxCell id="MctHvchrn3k6c2pTErhQ-1901" value="&lt;span style=&quot;font-weight: normal;&quot;&gt;&lt;font style=&quot;font-size: 20px;&quot;&gt;Batch&lt;/font&gt;&lt;/span&gt;" style="text;strokeColor=none;fillColor=none;html=1;fontSize=24;fontStyle=1;verticalAlign=middle;align=left;" parent="1" vertex="1">
          <mxGeometry x="760" y="640" width="100" height="40" as="geometry" />
        </mxCell>
        <mxCell id="MctHvchrn3k6c2pTErhQ-1902" value="&lt;span style=&quot;font-weight: normal;&quot;&gt;&lt;font style=&quot;font-size: 20px;&quot;&gt;Sample&lt;/font&gt;&lt;/span&gt;" style="text;strokeColor=none;fillColor=none;html=1;fontSize=24;fontStyle=1;verticalAlign=middle;align=left;" parent="1" vertex="1">
          <mxGeometry x="760" y="760" width="100" height="40" as="geometry" />
        </mxCell>
        <mxCell id="MctHvchrn3k6c2pTErhQ-1903" value="&lt;span style=&quot;font-weight: normal;&quot;&gt;&lt;font style=&quot;font-size: 20px;&quot;&gt;Scenario&lt;/font&gt;&lt;/span&gt;" style="text;strokeColor=none;fillColor=none;html=1;fontSize=24;fontStyle=1;verticalAlign=middle;align=left;" parent="1" vertex="1">
          <mxGeometry x="760" y="520" width="100" height="40" as="geometry" />
        </mxCell>
      </root>
    </mxGraphModel>
  </diagram>
</mxfile>
